<mxfile host="app.diagrams.net" modified="2024-03-05T05:48:13.019Z" agent="Mozilla/5.0 (Macintosh; Intel Mac OS X 10_15_7) AppleWebKit/605.1.15 (KHTML, like Gecko) Version/17.3.1 Safari/605.1.15" version="24.0.1" etag="JEIrgjw2dg4DnITAkEr8" type="github">
  <diagram name="第 1 页" id="NxqIuFKSRj3AtgCjAhaM">
    <mxGraphModel>
      <root>
        <mxCell id="0" />
        <mxCell id="1" parent="0" />
      </root>
    </mxGraphModel>
  </diagram>
</mxfile>
